<svg xmlns="http://www.w3.org/2000/svg" xmlns:xlink="http://www.w3.org/1999/xlink" id="visual" viewBox="0 0 960 540" width="960" height="540" version="1.1"><path d="M0 66L17.8 64.2C35.7 62.3 71.3 58.7 106.8 56C142.3 53.3 177.7 51.7 213.2 57C248.7 62.3 284.3 74.7 320 73.7C355.7 72.7 391.3 58.3 426.8 54.8C462.3 51.3 497.7 58.7 533.2 65C568.7 71.3 604.3 76.7 640 78.5C675.7 80.3 711.3 78.7 746.8 76.8C782.3 75 817.7 73 853.2 74.7C888.7 76.3 924.3 81.7 942.2 84.3L960 87L960 0L942.2 0C924.3 0 888.7 0 853.2 0C817.7 0 782.3 0 746.8 0C711.3 0 675.7 0 640 0C604.3 0 568.7 0 533.2 0C497.7 0 462.3 0 426.8 0C391.3 0 355.7 0 320 0C284.3 0 248.7 0 213.2 0C177.7 0 142.3 0 106.8 0C71.3 0 35.7 0 17.8 0L0 0Z" fill="#0055b4"/><path d="M0 190L17.8 183.7C35.7 177.3 71.3 164.7 106.8 164.7C142.3 164.7 177.7 177.3 213.2 193.5C248.7 209.7 284.3 229.3 320 236.5C355.7 243.7 391.3 238.3 426.8 234.8C462.3 231.3 497.7 229.7 533.2 224.3C568.7 219 604.3 210 640 206.3C675.7 202.7 711.3 204.3 746.8 203.3C782.3 202.3 817.7 198.7 853.2 203.2C888.7 207.7 924.3 220.3 942.2 226.7L960 233L960 85L942.2 82.3C924.3 79.7 888.7 74.3 853.2 72.7C817.7 71 782.3 73 746.8 74.8C711.3 76.7 675.7 78.3 640 76.5C604.3 74.7 568.7 69.3 533.2 63C497.7 56.7 462.3 49.3 426.8 52.8C391.3 56.3 355.7 70.7 320 71.7C284.3 72.7 248.7 60.3 213.2 55C177.7 49.7 142.3 51.3 106.8 54C71.3 56.7 35.7 60.3 17.8 62.2L0 64Z" fill="#267df8"/><path d="M0 347L17.8 347.8C35.7 348.7 71.3 350.3 106.8 349.3C142.3 348.3 177.7 344.7 213.2 355.5C248.7 366.3 284.3 391.7 320 394.3C355.7 397 391.3 377 426.8 366.2C462.3 355.3 497.7 353.7 533.2 359.2C568.7 364.7 604.3 377.3 640 380C675.7 382.7 711.3 375.3 746.8 370.8C782.3 366.3 817.7 364.7 853.2 367.3C888.7 370 924.3 377 942.2 380.5L960 384L960 231L942.2 224.7C924.3 218.3 888.7 205.7 853.2 201.2C817.7 196.7 782.3 200.3 746.8 201.3C711.3 202.3 675.7 200.7 640 204.3C604.3 208 568.7 217 533.2 222.3C497.7 227.7 462.3 229.3 426.8 232.8C391.3 236.3 355.7 241.7 320 234.5C284.3 227.3 248.7 207.7 213.2 191.5C177.7 175.3 142.3 162.7 106.8 162.7C71.3 162.7 35.7 175.3 17.8 181.7L0 188Z" fill="#5d9cfd"/><path d="M0 449L17.8 456.2C35.7 463.3 71.3 477.7 106.8 477.7C142.3 477.7 177.7 463.3 213.2 459.8C248.7 456.3 284.3 463.7 320 461.8C355.7 460 391.3 449 426.8 451.7C462.3 454.3 497.7 470.7 533.2 480.7C568.7 490.7 604.3 494.3 640 488C675.7 481.7 711.3 465.3 746.8 456.3C782.3 447.3 817.7 445.7 853.2 446.7C888.7 447.7 924.3 451.3 942.2 453.2L960 455L960 382L942.2 378.5C924.3 375 888.7 368 853.2 365.3C817.7 362.7 782.3 364.3 746.8 368.8C711.3 373.3 675.7 380.7 640 378C604.3 375.3 568.7 362.7 533.2 357.2C497.7 351.7 462.3 353.3 426.8 364.2C391.3 375 355.7 395 320 392.3C284.3 389.7 248.7 364.3 213.2 353.5C177.7 342.7 142.3 346.3 106.8 347.3C71.3 348.3 35.7 346.7 17.8 345.8L0 345Z" fill="#267df8"/><path d="M0 541L17.8 541C35.7 541 71.3 541 106.8 541C142.3 541 177.7 541 213.2 541C248.7 541 284.3 541 320 541C355.7 541 391.3 541 426.8 541C462.3 541 497.7 541 533.2 541C568.7 541 604.3 541 640 541C675.7 541 711.3 541 746.8 541C782.3 541 817.7 541 853.2 541C888.7 541 924.3 541 942.2 541L960 541L960 453L942.2 451.2C924.3 449.3 888.7 445.7 853.2 444.7C817.7 443.7 782.3 445.3 746.8 454.3C711.3 463.3 675.7 479.7 640 486C604.3 492.3 568.7 488.7 533.2 478.7C497.7 468.7 462.3 452.3 426.8 449.7C391.3 447 355.7 458 320 459.8C284.3 461.7 248.7 454.3 213.2 457.8C177.7 461.3 142.3 475.7 106.8 475.7C71.3 475.7 35.7 461.3 17.8 454.2L0 447Z" fill="#0055b4"/></svg>